# xmcd
#
# Track frame offsets:
#  182
#  12775
#  23587
#  48757
#  59815
#  72527
#  88575
#  99107
#  111390
#  124530
#  136587
#  146807
#  160070
#  183697
#
# Disc length: 2605 seconds
#
# Revision: 0
# Processed by: cddbd v1.5.1PL0 Copyright (c) Steve Scherf et al.
# Submitted via: Collectorz.com Music Collector 6.9
#
DISCID=ba0a2b0e
DTITLE=Various Artist - Essential Blues
DYEAR=1900
DGENRE=Blues
TTITLE0=Jimmy Reed - Shame, Shame, Shame
TTITLE1=Elmore James - Coming Home
TTITLE2=Howlin' Wolf - Little Red Rooster
TTITLE3=Memphis Slim - Lonesome
TTITLE4=Muddy Waters - 40 Days And 40 Nights
TTITLE5=B.B. King - It's My Own Fault Baby
TTITLE6=Eric Clapton - Got To Hurry
TTITLE7=Howlin' Wolf - Ain't Superstitious
TTITLE8=Elmore James - Dust My Broom
TTITLE9=Jimmy Reed - My Baby's So Sweet
TTITLE10=Eric Clapton - I Wish You Could
TTITLE11=Muddy Waters - Rollin' And Tumblin'
TTITLE12=B.B. King - You've Done Lost Your Good Thing Now
TTITLE13=Memphis Slim - Let the Good Times Roll Creole
EXTD=
EXTT0=
EXTT1=
EXTT2=
EXTT3=
EXTT4=
EXTT5=
EXTT6=
EXTT7=
EXTT8=
EXTT9=
EXTT10=
EXTT11=
EXTT12=
EXTT13=
PLAYORDER=
